<?xml version="1.0" standalone="no"?>
<!DOCTYPE svg PUBLIC "-//W3C//DTD SVG 20010904//EN"
 "http://www.w3.org/TR/2001/REC-SVG-20010904/DTD/svg10.dtd">
<svg version="1.0" xmlns="http://www.w3.org/2000/svg"
 width="598.000000pt" height="598.000000pt" viewBox="0 0 598.000000 598.000000"
 preserveAspectRatio="xMidYMid meet">
<metadata>
Created by potrace 1.11, written by Peter Selinger 2001-2013
</metadata>
<g transform="translate(0.000000,598.000000) scale(0.100000,-0.100000)"
fill="#000000" stroke="none">
<path d="M537 5039 c-66 -7 -117 -41 -151 -100 -19 -32 -20 -55 -21 -444 -1
-325 2 -419 13 -452 14 -44 65 -97 111 -115 16 -6 179 -10 441 -10 411 -1 415
0 458 22 44 23 70 53 91 105 8 23 11 140 9 451 l-3 420 -27 41 c-17 25 -44 49
-74 63 -46 23 -53 23 -418 24 -204 1 -397 -2 -429 -5z"/>
<path d="M2019 5038 c-53 -9 -108 -52 -134 -104 -18 -37 -19 -61 -20 -454 0
-375 2 -419 18 -452 19 -40 66 -84 106 -100 17 -7 614 -10 1752 -10 1597 -1
1728 1 1761 16 46 22 87 65 101 108 9 25 12 154 12 449 -1 460 1 446 -69 507
-20 17 -53 34 -73 38 -50 10 -3399 11 -3454 2z"/>
<path d="M559 3543 c-71 -9 -94 -18 -129 -49 -65 -59 -66 -69 -65 -529 1 -360
3 -414 18 -441 19 -36 69 -81 106 -96 29 -12 804 -15 863 -4 49 9 114 73 128
125 7 27 10 180 8 454 l-3 413 -28 43 c-19 29 -43 49 -75 63 -44 20 -66 21
-428 22 -209 1 -387 0 -395 -1z"/>
<path d="M2028 3538 c-71 -10 -115 -43 -145 -108 -14 -30 -17 -89 -18 -440 -1
-445 0 -458 57 -517 17 -18 48 -38 67 -44 48 -16 3463 -17 3502 -1 15 6 43 25
63 42 60 53 63 74 61 530 -1 449 0 437 -69 498 -20 17 -53 34 -73 38 -48 9
-3383 11 -3445 2z"/>
<path d="M519 2038 c-49 -9 -105 -50 -134 -99 -19 -32 -20 -54 -20 -439 -1
-438 2 -470 51 -521 59 -62 57 -62 516 -62 l418 0 47 29 c30 19 55 45 70 74
l24 45 -3 426 -3 425 -27 41 c-17 25 -44 49 -73 63 -46 22 -54 23 -435 24
-214 0 -408 -2 -431 -6z"/>
<path d="M2037 2039 c-69 -8 -121 -44 -152 -105 -18 -37 -19 -62 -20 -448 0
-291 3 -419 12 -444 14 -43 55 -86 101 -108 33 -16 162 -17 1762 -17 1174 1
1733 4 1751 11 46 18 97 71 111 115 11 33 14 127 13 452 -1 455 1 442 -69 503
-20 17 -52 34 -73 38 -46 9 -3356 11 -3436 3z"/>
</g>
</svg>
